<svg width="1600" height="405" viewBox="0 0 1600 405" fill="none" xmlns="http://www.w3.org/2000/svg">
<path d="M871.444 256.266C863.915 256.266 857.344 255.075 851.73 252.718C846.271 250.361 841.976 246.424 838.872 240.96C835.767 235.495 834.215 228.088 834.215 218.79V166.915H815.174V144.512H834.215L837.32 115.014H860.785V144.512H891.132V166.915H860.785V218.79C860.785 224.41 861.975 228.321 864.329 230.548C866.839 232.62 870.978 233.656 876.722 233.656H890.459V256.266H871.418H871.444Z" fill="#2A62F1"/>
<path d="M697.666 256.266V96.6255H724.236V161.813C727.935 155.753 732.954 150.961 739.293 147.413C745.631 143.71 752.798 141.871 760.766 141.871C769.924 141.871 777.686 143.787 784.024 147.646C790.363 151.35 795.175 156.892 798.409 164.273C801.798 171.525 803.505 180.615 803.505 191.545V256.292H777.142V193.979C777.142 184.371 775.073 177.041 770.933 172.017C766.949 166.993 760.818 164.48 752.539 164.48C747.235 164.48 742.423 165.801 738.154 168.469C733.86 170.981 730.471 174.685 727.961 179.554C725.452 184.293 724.184 190.12 724.184 197.061V256.266H697.614H697.666Z" fill="#2A62F1"/>
<path d="M642.302 164.014L637.205 144.512H683.049V161.139L642.302 164.014ZM623.933 202.163C630.272 202.163 635.368 200.454 639.223 197.061C643.052 193.668 644.992 188.774 644.992 182.428C644.992 176.083 643.078 171.266 639.223 168.029C635.394 164.636 630.298 162.927 623.933 162.927C617.569 162.927 612.42 164.636 608.436 168.029C604.452 171.292 602.46 176.083 602.46 182.428C602.46 188.774 604.452 193.668 608.436 197.061C612.42 200.454 617.595 202.163 623.933 202.163ZM623.933 222.779C614.62 222.779 606.574 221.018 599.795 217.469C593.146 213.766 588.05 208.897 584.505 202.837C580.961 196.621 579.202 189.835 579.202 182.428C579.202 175.021 580.961 168.08 584.505 162.02C588.05 155.96 593.146 151.091 599.795 147.387C606.599 143.684 614.645 141.845 623.933 141.845C633.221 141.845 641.215 143.684 647.864 147.387C654.513 151.091 659.61 155.96 663.154 162.02C666.698 168.08 668.458 174.892 668.458 182.428C668.458 189.965 666.698 196.621 663.154 202.837C659.61 208.897 654.513 213.766 647.864 217.469C641.215 221.018 633.247 222.779 623.933 222.779ZM623.933 307.701C613.455 307.701 604.219 306.38 596.251 303.713C588.438 301.2 582.306 297.29 577.856 291.955C573.562 286.775 571.44 280.274 571.44 272.453C571.44 267.869 572.553 263.362 574.752 258.934C577.106 254.634 580.573 250.646 585.152 246.968C589.887 243.135 595.863 239.794 603.081 236.997L614.827 249.869C607.738 252.381 602.796 255.411 599.976 258.959C597.182 262.508 595.759 266.133 595.759 269.811C595.759 273.489 596.949 276.83 599.304 279.342C601.813 282.009 605.125 284.004 609.264 285.324C613.559 286.645 618.345 287.319 623.649 287.319C628.952 287.319 633.324 286.568 637.153 285.091C640.982 283.771 643.958 281.828 646.001 279.316C648.226 276.804 649.313 273.774 649.313 270.225C649.313 265.797 647.761 262.171 644.656 259.374C641.551 256.706 635.42 255.075 626.262 254.505C618.448 253.909 611.567 253.106 605.668 252.07C599.769 250.879 594.673 249.558 590.378 248.082C586.239 246.606 582.694 244.974 579.745 243.213C576.796 241.296 574.364 239.38 572.424 237.437V232.335L595.682 207.939L615.396 214.362L589.266 239.872L596.122 227C597.596 228.036 599.071 228.994 600.546 229.875C602.175 230.756 604.168 231.584 606.522 232.31C609.031 232.905 612.291 233.501 616.275 234.071C620.259 234.666 625.434 235.262 631.772 235.832C641.655 236.583 649.701 238.344 655.91 241.141C662.119 243.938 666.698 247.719 669.648 252.459C672.597 257.198 674.072 262.87 674.072 269.526C674.072 276.182 672.235 282.165 668.535 287.94C664.991 293.716 659.532 298.429 652.133 302.133C644.76 305.836 635.291 307.675 623.778 307.675L623.933 307.701Z" fill="#2A62F1"/>
<path d="M541.818 126.772C536.954 126.772 532.892 125.296 529.632 122.343C526.528 119.235 524.976 115.48 524.976 111.025C524.976 106.571 526.528 102.738 529.632 99.9405C532.892 96.9881 536.954 95.5118 541.818 95.5118C546.682 95.5118 550.666 96.9881 553.77 99.9405C557.03 102.738 558.634 106.441 558.634 111.025C558.634 115.609 557.004 119.235 553.77 122.343C550.666 125.296 546.682 126.772 541.818 126.772ZM528.546 256.266V144.512H555.116V256.266H528.546Z" fill="#2A62F1"/>
<path d="M457.064 258.934C445.836 258.934 435.875 256.939 427.157 252.951C418.438 248.962 411.66 243.265 406.77 235.884C401.906 228.502 399.397 219.697 399.242 209.493H427.364C427.364 214.672 428.554 219.334 430.908 223.452C433.418 227.441 436.807 230.626 441.101 232.983C445.525 235.34 450.855 236.531 457.038 236.531C462.342 236.531 466.921 235.728 470.776 234.097C474.76 232.335 477.787 229.875 479.856 226.767C482.081 223.504 483.168 219.749 483.168 215.449C483.168 210.58 481.978 206.592 479.624 203.484C477.399 200.221 474.32 197.501 470.31 195.274C466.326 193.047 461.747 191.13 456.572 189.499C451.398 187.738 445.939 185.873 440.17 183.956C427.907 179.813 418.697 174.581 412.488 168.21C406.279 161.709 403.174 153.059 403.174 142.259C403.174 133.246 405.321 125.477 409.59 118.976C413.885 112.476 419.861 107.451 427.519 103.903C435.332 100.2 444.361 98.3607 454.529 98.3607C464.696 98.3607 473.88 100.2 481.538 103.903C489.351 107.607 495.483 112.76 499.933 119.416C504.512 125.917 506.866 133.764 507.021 142.907H478.666C478.511 139.074 477.476 135.526 475.562 132.262C473.647 128.87 470.827 126.124 467.154 124.052C463.609 121.825 459.263 120.737 454.089 120.737C449.665 120.582 445.681 121.333 442.136 122.965C438.747 124.441 436.005 126.668 433.935 129.621C432.021 132.418 431.063 135.966 431.063 140.265C431.063 144.564 431.943 147.879 433.728 150.676C435.643 153.344 438.385 155.623 441.929 157.54C445.474 159.301 449.613 161.01 454.322 162.642C459.056 164.273 464.204 166.034 469.818 167.951C477.502 170.463 484.436 173.571 490.645 177.274C496.983 180.823 502.002 185.484 505.702 191.234C509.401 197.009 511.238 204.468 511.238 213.636C511.238 221.613 509.169 229.072 505.029 236.039C500.89 242.85 494.836 248.393 486.868 252.666C478.899 256.81 468.939 258.882 456.96 258.882L457.064 258.934Z" fill="#2A62F1"/>
<path d="M270.196 257.82L268.204 256.266L285.253 174.659C286.572 168.883 284.502 164.765 279.044 162.253L275.266 160.492L275.499 158.265L316.686 146.066L318.678 147.853L313.582 174.685C321.266 165.957 329.079 159.094 337.047 154.069C345.015 148.889 352.544 146.299 359.633 146.299C364.367 146.299 368.274 147.776 371.378 150.728C374.483 153.525 376.035 157.98 376.035 164.04C376.035 167.148 375.75 170.385 375.155 173.804C374.56 177.067 373.836 180.46 372.93 184.008L361.185 231.248C360.59 233.604 360.15 235.599 359.865 237.23C359.581 238.707 359.426 240.027 359.426 241.219C359.426 244.327 360.693 245.881 363.203 245.881C367.342 245.881 372.568 242.565 378.933 235.909L381.157 238.137C377.458 243.601 372.594 248.548 366.54 253.003C360.486 257.431 353.76 259.659 346.386 259.659C341.523 259.659 337.745 258.545 335.081 256.344C332.416 253.987 331.097 250.724 331.097 246.58C331.097 243.472 331.459 240.286 332.209 237.049C332.959 233.656 333.761 230.186 334.641 226.638L343.282 192.037C344.472 187.297 345.429 183.102 346.154 179.398C346.904 175.695 347.266 172.302 347.266 169.194C347.266 166.526 346.671 164.688 345.507 163.652C344.317 162.46 342.713 161.891 340.643 161.891C337.099 161.891 332.882 163.445 328.018 166.552C323.283 169.66 318.057 174.529 312.288 181.185L306.079 209.13C304.449 216.952 302.897 224.799 301.422 232.62C299.948 240.468 298.473 248.367 296.998 256.344L270.196 257.898V257.82Z" fill="#2A62F1"/>
<path d="M228.776 259.581C224.197 259.581 220.446 258.39 217.47 256.033C214.521 253.676 213.046 250.206 213.046 245.622C213.046 242.954 213.331 239.794 213.926 236.091C214.521 232.387 215.194 228.71 215.918 225.006L226.318 175.125C227.638 169.065 225.516 164.765 219.902 162.253L216.358 160.492L216.591 158.058L258.243 146.092L260.468 148.086L243.186 228.347C242.591 231.015 242.152 233.294 241.867 235.21C241.582 236.971 241.427 238.758 241.427 240.519C241.427 243.783 242.902 245.388 245.851 245.388C248.076 245.388 250.275 244.715 252.5 243.394C254.725 241.918 257.519 239.561 260.908 236.298L262.9 238.292C259.201 243.757 254.492 248.704 248.723 253.158C243.109 257.457 236.46 259.581 228.776 259.581ZM249.37 133.868C245.23 133.868 241.608 132.547 238.504 129.88C235.554 127.083 234.08 123.379 234.08 118.795C234.08 113.615 235.839 109.42 239.383 106.156C243.083 102.764 247.196 101.054 251.776 101.054C256.355 101.054 259.822 102.453 262.642 105.276C265.436 108.073 266.859 111.699 266.859 116.127C266.859 121.152 265.099 125.373 261.555 128.766C258.011 132.159 253.949 133.868 249.37 133.868Z" fill="#2A62F1"/>
<path d="M105.111 309.488C98.9023 309.488 93.2883 308.09 88.2693 305.267C83.2502 302.47 80.7407 298.455 80.7407 293.301C80.7407 289.468 82.0084 286.49 84.5179 284.444C87.0274 282.398 89.9768 281.336 93.3659 281.336C96.755 281.336 99.9372 282.217 102.887 284.004C105.681 285.765 108.19 288.873 110.415 293.327L112.64 298.87C113.52 300.501 114.554 301.382 115.745 301.537C116.935 301.822 118.021 301.097 119.056 299.31C119.806 297.989 120.453 296.435 121.048 294.648C121.643 293.016 122.368 290.945 123.273 288.432C125.343 283.408 127.102 277.27 128.577 270.018C130.207 262.922 131.681 255.023 133.001 246.295C135.355 231.817 137.657 216.952 139.856 201.723C142.081 186.494 144.358 170.463 146.712 153.603H128.784L129.223 151.609L137.864 150.728C141.409 150.288 144.074 149.097 145.833 147.18C147.592 145.264 149.015 142.441 150.05 138.763C154.034 125.891 160.45 115.998 169.324 109.057C178.172 102.116 189.115 98.6456 202.103 98.6456C209.476 98.6456 215.478 100.277 220.031 103.515C224.611 106.622 226.887 110.611 226.887 115.48C226.887 119.468 225.62 122.654 223.11 125.011C220.601 127.367 217.574 128.559 214.029 128.559C207.096 128.559 201.327 123.897 196.747 114.599L195.868 111.051C194.548 107.943 192.996 106.467 191.211 106.622C189.581 106.622 188.184 107.736 186.994 109.938C184.484 113.486 182.208 118.432 180.138 124.803C178.068 131.175 176.231 139.436 174.602 149.64H201.611L200.499 154.302L173.929 154.069C171.575 169.738 169.194 185.484 166.84 201.309C164.615 216.977 162.183 232.051 159.519 246.528C157.449 257.457 154.732 266.936 151.317 274.913C148.058 283.045 143.634 289.909 138.02 295.529C133.44 300.113 128.266 303.583 122.523 305.94C116.909 308.297 111.088 309.488 105.034 309.488H105.111Z" fill="#2A62F1"/>
<path d="M612.291 182.713C612.291 176.264 617.517 171.033 623.959 171.033C630.401 171.033 635.627 176.264 635.627 182.713C635.627 189.162 630.401 194.394 623.959 194.394C617.517 194.394 612.291 189.162 612.291 182.713Z" fill="#2A62F1"/>
<path d="M962.769 215.424C960.647 215.424 958.94 214.776 957.672 213.507C956.456 212.212 955.861 210.373 955.861 207.939C955.861 205.66 956.456 203.847 957.672 202.474C958.888 201.127 960.57 200.428 962.769 200.428C964.813 200.428 966.469 201.076 967.659 202.345C968.926 203.64 969.573 205.478 969.573 207.913C969.573 210.347 968.926 212.134 967.659 213.481C966.443 214.776 964.813 215.398 962.769 215.398V215.424ZM962.769 188.644C960.647 188.644 958.94 187.997 957.672 186.728C956.456 185.433 955.861 183.594 955.861 181.159C955.861 178.88 956.456 177.067 957.672 175.695C958.888 174.348 960.57 173.649 962.769 173.649C964.813 173.649 966.469 174.296 967.659 175.565C968.926 176.86 969.573 178.699 969.573 181.133C969.573 183.568 968.926 185.355 967.659 186.702C966.443 187.997 964.813 188.618 962.769 188.618V188.644ZM991.15 188.644C989.028 188.644 987.321 187.997 986.053 186.728C984.837 185.433 984.242 183.594 984.242 181.159C984.242 178.88 984.837 177.067 986.053 175.695C987.269 174.348 988.951 173.649 991.15 173.649C993.193 173.649 994.849 174.296 996.039 175.565C997.307 176.86 997.954 178.699 997.954 181.133C997.954 183.568 997.307 185.355 996.039 186.702C994.823 187.997 993.193 188.618 991.15 188.618V188.644Z" fill="#0E1930"/>
<path d="M1037.23 215.424C1035.1 215.424 1033.4 214.776 1032.13 213.507C1030.91 212.212 1030.32 210.373 1030.32 207.939C1030.32 205.66 1030.91 203.847 1032.13 202.474C1033.35 201.127 1035.03 200.428 1037.23 200.428C1039.27 200.428 1040.93 201.076 1042.12 202.345C1043.38 203.64 1044.03 205.478 1044.03 207.913C1044.03 210.347 1043.38 212.134 1042.12 213.481C1040.9 214.776 1039.27 215.398 1037.23 215.398V215.424ZM1065.63 188.644C1063.51 188.644 1061.8 187.997 1060.54 186.728C1059.32 185.433 1058.73 183.594 1058.73 181.159C1058.73 178.88 1059.32 177.067 1060.54 175.695C1061.75 174.348 1063.43 173.649 1065.63 173.649C1067.68 173.649 1069.33 174.296 1070.52 175.565C1071.79 176.86 1072.44 178.699 1072.44 181.133C1072.44 183.568 1071.79 185.355 1070.52 186.702C1069.31 187.997 1067.68 188.618 1065.63 188.618V188.644Z" fill="#0E1930"/>
<path d="M1111.71 242.177C1109.59 242.177 1107.88 241.53 1106.61 240.26C1105.4 238.966 1104.8 237.127 1104.8 234.692C1104.8 232.413 1105.4 230.6 1106.61 229.228C1107.83 227.881 1109.51 227.182 1111.71 227.182C1113.75 227.182 1115.41 227.829 1116.6 229.098C1117.87 230.393 1118.51 232.232 1118.51 234.666C1118.51 237.101 1117.87 238.888 1116.6 240.235C1115.38 241.53 1113.75 242.151 1111.71 242.151V242.177ZM1140.09 215.424C1137.97 215.424 1136.26 214.776 1134.99 213.507C1133.78 212.212 1133.18 210.373 1133.18 207.939C1133.18 205.66 1133.78 203.847 1134.99 202.474C1136.21 201.127 1137.89 200.428 1140.09 200.428C1142.13 200.428 1143.79 201.076 1144.98 202.345C1146.25 203.64 1146.89 205.478 1146.89 207.913C1146.89 210.347 1146.25 212.134 1144.98 213.481C1143.76 214.776 1142.13 215.398 1140.09 215.398V215.424ZM1111.71 188.644C1109.59 188.644 1107.88 187.997 1106.61 186.728C1105.4 185.433 1104.8 183.594 1104.8 181.159C1104.8 178.88 1105.4 177.067 1106.61 175.695C1107.83 174.348 1109.51 173.649 1111.71 173.649C1113.75 173.649 1115.41 174.296 1116.6 175.565C1117.87 176.86 1118.51 178.699 1118.51 181.133C1118.51 183.568 1117.87 185.355 1116.6 186.702C1115.38 187.997 1113.75 188.618 1111.71 188.618V188.644ZM1140.09 188.644C1137.97 188.644 1136.26 187.997 1134.99 186.728C1133.78 185.433 1133.18 183.594 1133.18 181.159C1133.18 178.88 1133.78 177.067 1134.99 175.695C1136.21 174.348 1137.89 173.649 1140.09 173.649C1142.13 173.649 1143.79 174.296 1144.98 175.565C1146.25 176.86 1146.89 178.699 1146.89 181.133C1146.89 183.568 1146.25 185.355 1144.98 186.702C1143.76 187.997 1142.13 188.618 1140.09 188.618V188.644Z" fill="#0E1930"/>
<path d="M1186.17 242.177C1184.05 242.177 1182.34 241.53 1181.07 240.26C1179.85 238.966 1179.26 237.127 1179.26 234.692C1179.26 232.413 1179.85 230.6 1181.07 229.228C1182.29 227.881 1183.97 227.182 1186.17 227.182C1188.21 227.182 1189.87 227.829 1191.06 229.098C1192.32 230.393 1192.97 232.232 1192.97 234.666C1192.97 237.101 1192.32 238.888 1191.06 240.235C1189.84 241.53 1188.21 242.151 1186.17 242.151V242.177ZM1186.17 215.424C1184.05 215.424 1182.34 214.776 1181.07 213.507C1179.85 212.212 1179.26 210.373 1179.26 207.939C1179.26 205.66 1179.85 203.847 1181.07 202.474C1182.29 201.127 1183.97 200.428 1186.17 200.428C1188.21 200.428 1189.87 201.076 1191.06 202.345C1192.32 203.64 1192.97 205.478 1192.97 207.913C1192.97 210.347 1192.32 212.134 1191.06 213.481C1189.84 214.776 1188.21 215.398 1186.17 215.398V215.424ZM1214.57 188.644C1212.45 188.644 1210.74 187.997 1209.48 186.728C1208.26 185.433 1207.67 183.594 1207.67 181.159C1207.67 178.88 1208.26 177.067 1209.48 175.695C1210.69 174.348 1212.37 173.649 1214.57 173.649C1216.62 173.649 1218.27 174.296 1219.46 175.565C1220.73 176.86 1221.38 178.699 1221.38 181.133C1221.38 183.568 1220.73 185.355 1219.46 186.702C1218.25 187.997 1216.62 188.618 1214.57 188.618V188.644Z" fill="#0E1930"/>
<path d="M1260.65 215.424C1258.53 215.424 1256.82 214.776 1255.55 213.507C1254.34 212.212 1253.74 210.373 1253.74 207.939C1253.74 205.66 1254.34 203.847 1255.55 202.474C1256.77 201.127 1258.45 200.428 1260.65 200.428C1262.69 200.428 1264.35 201.076 1265.54 202.345C1266.81 203.64 1267.45 205.478 1267.45 207.913C1267.45 210.347 1266.81 212.134 1265.54 213.481C1264.32 214.776 1262.69 215.398 1260.65 215.398V215.424ZM1289.03 188.644C1286.91 188.644 1285.2 187.997 1283.93 186.728C1282.72 185.433 1282.12 183.594 1282.12 181.159C1282.12 178.88 1282.72 177.067 1283.93 175.695C1285.15 174.348 1286.83 173.649 1289.03 173.649C1291.07 173.649 1292.73 174.296 1293.92 175.565C1295.19 176.86 1295.84 178.699 1295.84 181.133C1295.84 183.568 1295.19 185.355 1293.92 186.702C1292.7 187.997 1291.07 188.618 1289.03 188.618V188.644Z" fill="#0E1930"/>
<path d="M1363.51 215.424C1361.39 215.424 1359.69 214.776 1358.42 213.507C1357.2 212.212 1356.61 210.373 1356.61 207.939C1356.61 205.66 1357.2 203.847 1358.42 202.474C1359.63 201.127 1361.32 200.428 1363.51 200.428C1365.56 200.428 1367.21 201.076 1368.4 202.345C1369.67 203.64 1370.32 205.478 1370.32 207.913C1370.32 210.347 1369.67 212.134 1368.4 213.481C1367.19 214.776 1365.56 215.398 1363.51 215.398V215.424ZM1335.11 215.424C1332.99 215.424 1331.28 214.776 1330.01 213.507C1328.8 212.212 1328.2 210.373 1328.2 207.939C1328.2 205.66 1328.8 203.847 1330.01 202.474C1331.23 201.127 1332.91 200.428 1335.11 200.428C1337.15 200.428 1338.81 201.076 1340 202.345C1341.27 203.64 1341.91 205.478 1341.91 207.913C1341.91 210.347 1341.27 212.134 1340 213.481C1338.78 214.776 1337.15 215.398 1335.11 215.398V215.424ZM1335.11 188.644C1332.99 188.644 1331.28 187.997 1330.01 186.728C1328.8 185.433 1328.2 183.594 1328.2 181.159C1328.2 178.88 1328.8 177.067 1330.01 175.695C1331.23 174.348 1332.91 173.649 1335.11 173.649C1337.15 173.649 1338.81 174.296 1340 175.565C1341.27 176.86 1341.91 178.699 1341.91 181.133C1341.91 183.568 1341.27 185.355 1340 186.702C1338.78 187.997 1337.15 188.618 1335.11 188.618V188.644ZM1363.51 188.644C1361.39 188.644 1359.69 187.997 1358.42 186.728C1357.2 185.433 1356.61 183.594 1356.61 181.159C1356.61 178.88 1357.2 177.067 1358.42 175.695C1359.63 174.348 1361.32 173.649 1363.51 173.649C1365.56 173.649 1367.21 174.296 1368.4 175.565C1369.67 176.86 1370.32 178.699 1370.32 181.133C1370.32 183.568 1369.67 185.355 1368.4 186.702C1367.19 187.997 1365.56 188.618 1363.51 188.618V188.644Z" fill="#0E1930"/>
<path d="M1409.59 215.424C1407.47 215.424 1405.76 214.776 1404.49 213.507C1403.28 212.212 1402.68 210.373 1402.68 207.939C1402.68 205.66 1403.28 203.847 1404.49 202.474C1405.71 201.127 1407.39 200.428 1409.59 200.428C1411.64 200.428 1413.29 201.076 1414.48 202.345C1415.75 203.64 1416.4 205.478 1416.4 207.913C1416.4 210.347 1415.75 212.134 1414.48 213.481C1413.27 214.776 1411.64 215.398 1409.59 215.398V215.424ZM1437.97 215.424C1435.85 215.424 1434.14 214.776 1432.88 213.507C1431.66 212.212 1431.06 210.373 1431.06 207.939C1431.06 205.66 1431.66 203.847 1432.88 202.474C1434.09 201.127 1435.77 200.428 1437.97 200.428C1440.02 200.428 1441.67 201.076 1442.86 202.345C1444.13 203.64 1444.78 205.478 1444.78 207.913C1444.78 210.347 1444.13 212.134 1442.86 213.481C1441.65 214.776 1440.02 215.398 1437.97 215.398V215.424ZM1409.59 188.644C1407.47 188.644 1405.76 187.997 1404.49 186.728C1403.28 185.433 1402.68 183.594 1402.68 181.159C1402.68 178.88 1403.28 177.067 1404.49 175.695C1405.71 174.348 1407.39 173.649 1409.59 173.649C1411.64 173.649 1413.29 174.296 1414.48 175.565C1415.75 176.86 1416.4 178.699 1416.4 181.133C1416.4 183.568 1415.75 185.355 1414.48 186.702C1413.27 187.997 1411.64 188.618 1409.59 188.618V188.644Z" fill="#0E1930"/>
<path d="M1484.05 242.177C1481.93 242.177 1480.22 241.53 1478.95 240.26C1477.74 238.966 1477.14 237.127 1477.14 234.692C1477.14 232.413 1477.74 230.6 1478.95 229.228C1480.17 227.881 1481.85 227.182 1484.05 227.182C1486.09 227.182 1487.75 227.829 1488.94 229.098C1490.21 230.393 1490.85 232.232 1490.85 234.666C1490.85 237.101 1490.21 238.888 1488.94 240.235C1487.72 241.53 1486.09 242.151 1484.05 242.151V242.177ZM1512.45 215.424C1510.33 215.424 1508.63 214.776 1507.36 213.507C1506.14 212.212 1505.55 210.373 1505.55 207.939C1505.55 205.66 1506.14 203.847 1507.36 202.474C1508.57 201.127 1510.26 200.428 1512.45 200.428C1514.5 200.428 1516.15 201.076 1517.34 202.345C1518.61 203.64 1519.26 205.478 1519.26 207.913C1519.26 210.347 1518.61 212.134 1517.34 213.481C1516.13 214.776 1514.5 215.398 1512.45 215.398V215.424ZM1484.05 215.424C1481.93 215.424 1480.22 214.776 1478.95 213.507C1477.74 212.212 1477.14 210.373 1477.14 207.939C1477.14 205.66 1477.74 203.847 1478.95 202.474C1480.17 201.127 1481.85 200.428 1484.05 200.428C1486.09 200.428 1487.75 201.076 1488.94 202.345C1490.21 203.64 1490.85 205.478 1490.85 207.913C1490.85 210.347 1490.21 212.134 1488.94 213.481C1487.72 214.776 1486.09 215.398 1484.05 215.398V215.424ZM1512.45 188.644C1510.33 188.644 1508.63 187.997 1507.36 186.728C1506.14 185.433 1505.55 183.594 1505.55 181.159C1505.55 178.88 1506.14 177.067 1507.36 175.695C1508.57 174.348 1510.26 173.649 1512.45 173.649C1514.5 173.649 1516.15 174.296 1517.34 175.565C1518.61 176.86 1519.26 178.699 1519.26 181.133C1519.26 183.568 1518.61 185.355 1517.34 186.702C1516.13 187.997 1514.5 188.618 1512.45 188.618V188.644Z" fill="#0E1930"/>
</svg>
